<svg width="55" height="55" viewBox="0 0 55 55" fill="none" xmlns="http://www.w3.org/2000/svg">
<path d="M23.9932 29.1224V27.8367C23.9932 27.4751 24.2745 27.1939 24.6361 27.1939H38.7789C39.1405 27.1939 39.4218 27.4751 39.4218 27.8367V29.1224C39.4218 29.484 39.1405 29.7653 38.7789 29.7653H24.6361C24.2745 29.7653 23.9932 29.484 23.9932 29.1224Z" fill="white"/>
<path d="M24.6361 32.3367H38.7789C39.1405 32.3367 39.4218 32.618 39.4218 32.9796V34.2653C39.4218 34.6269 39.1405 34.9081 38.7789 34.9081H24.6361C24.2745 34.9081 23.9932 34.6269 23.9932 34.2653V32.9796C23.9932 32.618 24.2745 32.3367 24.6361 32.3367Z" fill="white"/>
<path d="M24.6361 37.4796H38.7789C39.1405 37.4796 39.4218 37.7608 39.4218 38.1224V39.4081C39.4218 39.7698 39.1405 40.051 38.7789 40.051H24.6361C24.2745 40.051 23.9932 39.7698 23.9932 39.4081V38.1224C23.9932 37.7608 24.2745 37.4796 24.6361 37.4796Z" fill="white"/>
<path fill-rule="evenodd" clip-rule="evenodd" d="M16.2789 21.0648C12.1837 21.0648 8.86392 17.745 8.86392 13.6498C8.86392 9.55461 12.1837 6.2348 16.2789 6.2348C19.7229 6.2348 22.6185 8.58277 23.4523 11.7653H36.2075C37.2722 11.7653 38.7588 12.3881 39.5021 13.1314L45.77 19.3992C46.5133 20.1425 47.1361 21.6291 47.1361 22.6939V45.8367C47.1361 46.9015 46.2722 47.7653 45.2075 47.7653H18.2075C17.1428 47.7653 16.2789 46.9015 16.2789 45.8367L16.2789 21.0648ZM18.8504 20.6068C21.4729 19.6371 23.397 17.227 23.6625 14.3367H34.2789V22.6939C34.2789 23.7586 35.1428 24.6224 36.2075 24.6224H44.5646V45.1939H18.8504V20.6068ZM37.674 14.9394C37.5334 14.7988 37.1919 14.618 36.8504 14.4974V22.051H44.4039C44.2834 21.7095 44.1026 21.368 43.962 21.2273L37.674 14.9394ZM17.2789 14.6498H21.2789V12.6498H17.2789V8.64984H15.2789V12.6498H11.2789V14.6498H15.2789V18.6498H17.2789V14.6498Z" fill="white"/>
</svg>
